<?xml version="1.0" encoding="UTF-8"?>
<svg id="Layer_1" data-name="Layer 1" xmlns="http://www.w3.org/2000/svg" xmlns:xlink="http://www.w3.org/1999/xlink" viewBox="0 0 1024 1024">
  <defs>
    <style>
      .cls-1 {
        fill: url(#linear-gradient);
      }
    </style>
    <linearGradient id="linear-gradient" x1="866.58" y1="866.58" x2="151.67" y2="151.67" gradientUnits="userSpaceOnUse">
      <stop offset="0" stop-color="#f30"/>
      <stop offset=".5" stop-color="#ff7325"/>
      <stop offset="1" stop-color="#fdc021"/>
    </linearGradient>
  </defs>
  <path class="cls-1" d="M230.53,408.18v207.65L20.68,702.75c-9.85,4.08-20.68-3.16-20.68-13.82V335.07c0-10.66,10.83-17.9,20.68-13.82l209.85,86.93Zm153.38-171.1L296.98,27.22c-4.08-9.85-16.86-12.39-24.4-4.85L22.37,272.59c-7.54,7.54-5,20.32,4.85,24.4l209.85,86.93,146.84-146.84ZM688.93,0H335.07c-10.66,0-17.9,10.83-13.82,20.68l86.93,209.85h207.65L702.75,20.68c4.08-9.85-3.16-20.68-13.82-20.68Zm312.7,272.59L751.41,22.37c-7.54-7.54-20.32-5-24.4,4.85l-86.93,209.85,146.84,146.84,209.85-86.93c9.85-4.08,12.39-16.86,4.85-24.4Zm1.68,48.66l-209.85,86.93v207.65l209.85,86.93c9.85,4.08,20.68-3.16,20.68-13.82V335.07c0-10.66-10.83-17.9-20.68-13.82Zm-6.54,405.77l-209.85-86.93-146.84,146.84,86.93,209.85c4.08,9.85,16.86,12.39,24.4,4.85l250.22-250.22c7.54-7.54,5-20.32-4.85-24.4Zm-294.03,276.3l-86.93-209.85h-207.65l-86.93,209.85c-4.08,9.85,3.16,20.68,13.82,20.68h353.87c10.66,0,17.9-10.83,13.82-20.68Zm-318.84-216.39l-146.84-146.84L27.22,727.02c-9.85,4.08-12.39,16.86-4.85,24.4l250.22,250.22c7.54,7.54,20.32,5,24.4-4.85l86.93-209.85Zm-34.69-330.81l-101.01-41.84v195.44l101.01-41.84c2.42-1,4-3.36,4-5.99v-99.79c0-2.62-1.58-4.98-4-5.99Zm84.84-101.09l-41.84-101.01-138.21,138.21,101.01,41.84c2.42,1,5.21,.45,7.06-1.4l70.57-70.57c1.85-1.85,2.41-4.64,1.4-7.06Zm175.66-106.81h-195.44l41.84,101.01c1,2.42,3.36,4,5.99,4h99.79c2.62,0,4.98-1.58,5.99-4l41.84-101.01Zm160.26,144.01l-138.21-138.21-41.84,101.01c-1,2.42-.45,5.21,1.4,7.06l70.57,70.57c1.85,1.85,4.64,2.41,7.06,1.4l101.01-41.84Zm5.81,22.06l-101.01,41.84c-2.42,1-4,3.36-4,5.99v99.79c0,2.62,1.58,4.98,4,5.99l101.01,41.84v-195.44Zm-5.81,217.49l-101.01-41.84c-2.42-1-5.21-.45-7.06,1.4l-70.57,70.57c-1.85,1.85-2.41,4.64-1.4,7.06l41.84,101.01,138.21-138.21Zm-160.26,144.01l-41.84-101.01c-1-2.42-3.36-4-5.99-4h-99.79c-2.62,0-4.98,1.58-5.99,4l-41.84,101.01h195.44Zm-177.06-113.87l-70.57-70.57c-1.85-1.85-4.64-2.41-7.06-1.4l-101.01,41.84,138.21,138.21,41.84-101.01c1-2.42,.45-5.21-1.4-7.06Zm209.4-216.57l-63.41-63.41c-5.79-5.79-13.64-9.04-21.82-9.04h-89.66c-8.19,0-16.04,3.25-21.82,9.04l-63.41,63.41c-5.79,5.79-9.04,13.64-9.04,21.82v89.66c0,8.19,3.25,16.04,9.04,21.82l63.41,63.41c5.79,5.79,13.64,9.04,21.82,9.04h89.66c8.19,0,16.04-3.25,21.82-9.04l63.41-63.41c5.79-5.79,9.04-13.64,9.04-21.82v-89.66c0-8.19-3.25-16.04-9.04-21.82Z"/>
</svg>